<svg xmlns="http://www.w3.org/2000/svg" width="900" height="430" viewBox="0 0 900 430">
<rect width="900" height="430" fill="#ffffff"/>
<text x="28.0" y="34.0" font-family="Arial, sans-serif" font-size="20" font-weight="700" fill="#111827">Runtime Quality Metrics</text>
<text x="28.0" y="58.0" font-family="Arial, sans-serif" font-size="13" font-weight="400" fill="#4b5563">Bars are normalized to each metric scale; synthesis uses a 0-5 rubric.</text>
<text x="28.0" y="100.0" font-family="Arial, sans-serif" font-size="13" font-weight="700" fill="#111827">retrieval recall@5</text>
<rect x="250.0" y="86.0" width="470.0" height="17.0" rx="3" fill="#e5e7eb"/>
<rect x="250.0" y="86.0" width="433.8" height="17.0" rx="3" fill="#2563eb"/>
<text x="738.0" y="100.0" font-family="Arial, sans-serif" font-size="13" font-weight="400" fill="#111827">0.923</text>
<text x="28.0" y="138.0" font-family="Arial, sans-serif" font-size="13" font-weight="700" fill="#111827">retrieval MRR</text>
<rect x="250.0" y="124.0" width="470.0" height="17.0" rx="3" fill="#e5e7eb"/>
<rect x="250.0" y="124.0" width="417.0" height="17.0" rx="3" fill="#2563eb"/>
<text x="738.0" y="138.0" font-family="Arial, sans-serif" font-size="13" font-weight="400" fill="#111827">0.887</text>
<text x="28.0" y="176.0" font-family="Arial, sans-serif" font-size="13" font-weight="700" fill="#111827">precision@5</text>
<rect x="250.0" y="162.0" width="470.0" height="17.0" rx="3" fill="#e5e7eb"/>
<rect x="250.0" y="162.0" width="226.0" height="17.0" rx="3" fill="#dc2626"/>
<text x="738.0" y="176.0" font-family="Arial, sans-serif" font-size="13" font-weight="400" fill="#111827">0.481</text>
<text x="28.0" y="214.0" font-family="Arial, sans-serif" font-size="13" font-weight="700" fill="#111827">provenance coverage</text>
<rect x="250.0" y="200.0" width="470.0" height="17.0" rx="3" fill="#e5e7eb"/>
<rect x="250.0" y="200.0" width="470.0" height="17.0" rx="3" fill="#2563eb"/>
<text x="738.0" y="214.0" font-family="Arial, sans-serif" font-size="13" font-weight="400" fill="#111827">1.000</text>
<text x="28.0" y="252.0" font-family="Arial, sans-serif" font-size="13" font-weight="700" fill="#111827">context relevance</text>
<rect x="250.0" y="238.0" width="470.0" height="17.0" rx="3" fill="#e5e7eb"/>
<rect x="250.0" y="238.0" width="470.0" height="17.0" rx="3" fill="#2563eb"/>
<text x="738.0" y="252.0" font-family="Arial, sans-serif" font-size="13" font-weight="400" fill="#111827">1.000</text>
<text x="28.0" y="290.0" font-family="Arial, sans-serif" font-size="13" font-weight="700" fill="#111827">context hash stability</text>
<rect x="250.0" y="276.0" width="470.0" height="17.0" rx="3" fill="#e5e7eb"/>
<rect x="250.0" y="276.0" width="470.0" height="17.0" rx="3" fill="#2563eb"/>
<text x="738.0" y="290.0" font-family="Arial, sans-serif" font-size="13" font-weight="400" fill="#111827">1.000</text>
<text x="28.0" y="328.0" font-family="Arial, sans-serif" font-size="13" font-weight="700" fill="#111827">replay hash match</text>
<rect x="250.0" y="314.0" width="470.0" height="17.0" rx="3" fill="#e5e7eb"/>
<rect x="250.0" y="314.0" width="470.0" height="17.0" rx="3" fill="#2563eb"/>
<text x="738.0" y="328.0" font-family="Arial, sans-serif" font-size="13" font-weight="400" fill="#111827">1.000</text>
<text x="28.0" y="366.0" font-family="Arial, sans-serif" font-size="13" font-weight="700" fill="#111827">synthesis score</text>
<rect x="250.0" y="352.0" width="470.0" height="17.0" rx="3" fill="#e5e7eb"/>
<rect x="250.0" y="352.0" width="429.7" height="17.0" rx="3" fill="#2563eb"/>
<text x="738.0" y="366.0" font-family="Arial, sans-serif" font-size="13" font-weight="400" fill="#111827">4.57/5</text>
</svg>
